/* XPM */
static char *_92a8c97c5b7400ab7e4e59b7a0a138dq8Q8ByyoVWiXkwyg[] = {
/* columns rows colors chars-per-pixel */
"32 32 6 1 ",
"  c None",
". c black",
"X c #1E6914",
"o c #9E3814",
"O c #B84720",
"+ c #4AC738",
/* pixels */
"              ....              ",
"              ....              ",
"    ..      ..OOOO..      ..    ",
"    ..      ..OOOO..      ..    ",
"  ..OO..  ..OOOOOOOO..  ..OO..  ",
"  ..OO..  ..OOOOOOOO..  ..OO..  ",
"  ..OOOO..OOOOOOOOOOOO..OOOO..  ",
"  ..OOOO..OOOOOOOOOOOO..OOOO..  ",
"..OOOOOOOOOOOOOOOOOOOOOOOOOOOO..",
"..OOOOOOOOOOOOOOOOOOOOOOOOOOOO..",
"..ooOOOOOO....OOOOOO....OOOOOO..",
"..ooOOOOOO....OOOOOO....OOOOOO..",
"..ooOOOO..OOOO..OO..OOOO..OOOO..",
"..ooOOOO..OOOO..OO..OOOO..OOOO..",
"..ooOOOOOOOOOOOOOOOOOOOOOOOOOO..",
"..ooOOOOOOOOOOOOOOOOOOOOOOOOOO..",
"  ..ooOOOOOOOOOOOOOOOOOOOOOO..  ",
"  ..ooOOOOOOOOOOOOOOOOOOOOOO..  ",
"    ..ooooOOOOOOOOOOOOOOOO..    ",
"    ..ooooOOOOOOOOOOOOOOOO..    ",
"      ....oooooooooooo....      ",
"      ....oooooooooooo....      ",
"          ............          ",
"          ............          ",
"      ........XX++..XX......    ",
"      ........XX++..XX......    ",
"    ..XX++++..XX++....XX++++..  ",
"    ..XX++++..XX++....XX++++..  ",
"  ..XXXXXXXX++..++..XXXXXXXX++..",
"  ..XXXXXXXX++..++..XXXXXXXX++..",
"  ..XXXXXXXX++......XXXXXXXX++..",
"  ..XXXXXXXX++......XXXXXXXX++.."
};
