/* XPM */
static char *a342c5d1660042e29fc694578e458184XpHKuUXoHoSB1X8w[] = {
/* columns rows colors chars-per-pixel */
"32 32 2 1 ",
"  c #2D5652",
". c #397C4D",
/* pixels */
"                                ",
"                                ",
"      ....              ....    ",
"      ....              ....    ",
"        ....          ....      ",
"        ....          ....      ",
"  ....      ..      ..      ....",
"  ....      ..      ..      ....",
"    ......              ......  ",
"    ......              ......  ",
"          ..          ..        ",
"          ..          ..        ",
"                                ",
"                                ",
"                                ",
"                                ",
"                                ",
"                                ",
"              ....          ....",
"              ....          ....",
"..          ....              ..",
"..          ....              ..",
"  ..      ..      ....  ....    ",
"  ..      ..      ....  ....    ",
"              ......      ......",
"              ......      ......",
"..          ..                  ",
"..          ..                  ",
"                                ",
"                                ",
"                                ",
"                                "
};
