/* XPM */
static char *_b89f31fc2ed46e39ceedaa29c13ff7dr4oXDdAAnfnu6Hp4[] = {
/* columns rows colors chars-per-pixel */
"32 32 3 1 ",
"  c None",
". c black",
"X c #E2BA0E",
/* pixels */
"                                ",
"                                ",
"                                ",
"                                ",
"            ..XX                ",
"            ..XX                ",
"            ..XX..              ",
"            ..XX..              ",
"          XX..XX......          ",
"          XX..XX......          ",
"        ..XX..XXXX..XXXX        ",
"        ..XX..XXXX..XXXX        ",
"        ....XXXXXXXX........    ",
"        ....XXXXXXXX........    ",
"      ....XXXXXXXXXXXXXXXXXX    ",
"      ....XXXXXXXXXXXXXXXXXX    ",
"    XXXXXXXXXXXXXXXXXX....      ",
"    XXXXXXXXXXXXXXXXXX....      ",
"    ........XXXXXXXX....        ",
"    ........XXXXXXXX....        ",
"        XXXX..XXXX..XX..        ",
"        XXXX..XXXX..XX..        ",
"          ......XX..XX          ",
"          ......XX..XX          ",
"              ..XX..            ",
"              ..XX..            ",
"                XX..            ",
"                XX..            ",
"                                ",
"                                ",
"                                ",
"                                "
};
