/* XPM */
static char *_2dd34d812ba4f6191aa2114f5a721cfu4Ns9hCQ4NnubfLe[] = {
/* columns rows colors chars-per-pixel */
"32 32 3 1 ",
"  c None",
". c black",
"X c #E2BA0E",
/* pixels */
"                                ",
"                                ",
"                                ",
"                                ",
"                XX..            ",
"                XX..            ",
"              ..XX..            ",
"              ..XX..            ",
"          ......XX..XX          ",
"          ......XX..XX          ",
"        XXXX..XXXX..XX..        ",
"        XXXX..XXXX..XX..        ",
"    ........XXXXXXXX....        ",
"    ........XXXXXXXX....        ",
"    XXXXXXXXXXXXXXXXXX....      ",
"    XXXXXXXXXXXXXXXXXX....      ",
"      ....XXXXXXXXXXXXXXXXXX    ",
"      ....XXXXXXXXXXXXXXXXXX    ",
"        ....XXXXXXXX........    ",
"        ....XXXXXXXX........    ",
"        ..XX..XXXX..XXXX        ",
"        ..XX..XXXX..XXXX        ",
"          XX..XX......          ",
"          XX..XX......          ",
"            ..XX..              ",
"            ..XX..              ",
"            ..XX                ",
"            ..XX                ",
"                                ",
"                                ",
"                                ",
"                                "
};
