/* XPM */
static char *fe9f4d0626204667bd59695facc404f9wQN80oeitTOUMx4w[] = {
/* columns rows colors chars-per-pixel */
"32 32 4 1 ",
"  c #27343E",
". c #2D5652",
"X c #397C4D",
"o c #62AB3C",
/* pixels */
"XXXXXX  ..    ......      ....  ",
"XXXXXX  ..    ......      ....  ",
"  XXooXX  ..XXXX......XXXXXX....",
"  XXooXX  ..XXXX......XXXXXX....",
"..ooooXX..XXXXXX  ......XXXXXX..",
"..ooooXX..XXXXXX  ......XXXXXX..",
"oooooo......      oooooo  XXXXXX",
"oooooo......      oooooo  XXXXXX",
"oooo        XXXXXX      oo....  ",
"oooo        XXXXXX      oo....  ",
"oo  ......    ..XXXX  ..oooo    ",
"oo  ......    ..XXXX  ..oooo    ",
"XX......oooooo....XX....ooooooXX",
"XX......oooooo....XX....ooooooXX",
"......oooooo  ......      ooooXX",
"......oooooo  ......      ooooXX",
"XXXXXXoooo      ....  ......oo  ",
"XXXXXXoooo      ....  ......oo  ",
"  XXXXXX  ......  ..oooo......  ",
"  XXXXXX  ......  ..oooo......  ",
"    XXXX....oo    oooooo  ......",
"    XXXX....oo    oooooo  ......",
"..    ......ooooXXXXXX    ..oooo",
"..    ......ooooXXXXXX    ..oooo",
"....    ooooooooooXXXXXX  ....oo",
"....    ooooooooooXXXXXX  ....oo",
"......XXXX......oo  XXXX..XXXXXX",
"......XXXX......oo  XXXX..XXXXXX",
"  ....XXXXXX......    ..XXXXXX..",
"  ....XXXXXX......    ..XXXXXX..",
"    ..  XXXXXX......  XXXXXX  ..",
"    ..  XXXXXX......  XXXXXX  .."
};
